<svg version="1" xmlns="http://www.w3.org/2000/svg" width="800" height="800" viewBox="0 0 600.000000 600.000000"><path d="M336.2 159.4c-9.5 5.2-22.5 11.8-28.7 14.7-6.3 3-11.5 5.7-11.5 6.1 0 .4.4 1.8 1 3.2l.9 2.5 8.6-3c15.3-5.2 18.1-3.9 17.2 8.1-.7 8.3-5.6 28.4-11.2 45.8l-3.6 11.2-9.7-8.9c-34.8-32.2-63.8-49-95.7-55.7-12.2-2.6-41.1-2.6-53.7-.1-43.2 8.6-75.3 36.1-86.2 74-6.5 22.4-5.1 51.9 3.6 76.5 13.5 38.3 42.5 64.3 82.9 74.3 13.2 3.2 41.6 3.3 55.9.2 37.1-8.2 64.3-26.2 115-76l20.5-20.1 39 38.4c21.5 21.2 45 44.1 52.2 51.1l13.3 12.5 13.6-12.8c7.5-7.1 16.8-16.2 20.6-20.3l6.9-7.4-2.2-2.3c-2.2-2.3-2.3-2.4-4.3-.6-1.2 1-4.6 4-7.5 6.6-6.1 5.3-11.9 8.6-15.1 8.6-2.8 0-7.4-2.5-14-7.5-6.1-4.7-85-81.3-85-82.5 0-.5 17-17.4 37.8-37.6 20.7-20.3 51.9-50.9 69.2-68.1l31.5-31.3-47.9.2-48 .3-1.8 6.5c-1.9 6.5-12.3 39.6-13.4 42.5-.5 1.2.2 1.5 3.4 1.5 3.9 0 3.9 0 6.2-6.3 3.5-9.5 7.8-17.5 10.4-19.2 1.3-.9 6.1-2 10.7-2.5 11.1-1.3 44.2-1.3 43.7 0-.9 2.8-30.9 33.8-66.8 68.9l-40.5 39.8-16.2-15.6-16.2-15.6 2-4.5c3.9-8.7 11.1-29.4 16.3-47.4 5.1-17.3 15.6-55.6 15.6-56.9 0-1.3-1.6-.6-18.8 8.7zm-154.9 34.1c26.5 4 49.6 16.2 81.4 43.1 14.7 12.5 37.3 33.7 37.3 35.1 0 2.2-10.8 23.2-15.8 30.8-6 9-16.2 19.7-23.5 24.7-20.3 13.8-47.8 12.7-58.6-2.3-1.7-2.3-3.3-5.7-3.7-7.5-.9-4.9-2-5-3.9-.2-1.8 4.7-2.2 12-.7 15.9 2.4 6.1 10.6 11.8 20 13.8 29.3 6.2 64.5-16 89.4-56.2 3.3-5.3 6.3-9.7 6.6-9.7 1.2 0 26.2 25.5 26.2 26.7 0 1.1-29.8 30.2-43.5 42.3-12.3 10.9-31.2 24.5-41.3 29.7-10.6 5.6-24.5 10.3-36.2 12.4-9.5 1.7-37.4 1.8-46.2.1-26-4.9-48.2-16.2-66.9-34-11-10.5-16.6-17.6-22.4-28.5-16.4-30.9-14.2-73.5 5.1-99.8 4.1-5.6 15.5-16.5 21.8-20.9 20.7-14.2 47.2-19.7 74.9-15.5z"/></svg>